<?xml version="1.0" encoding="UTF-8"?>
<svg id="Layer_2" data-name="Layer 2" xmlns="http://www.w3.org/2000/svg" xmlns:xlink="http://www.w3.org/1999/xlink" viewBox="0 0 365.96 314.14">
  <defs>
    <style>
      .cls-1 {
        fill: none;
      }

      .cls-2, .cls-3, .cls-4 {
        font-family: Poppins-Bold, Poppins;
        font-size: 22.16px;
        font-weight: 700;
      }

      .cls-2, .cls-5 {
        fill: #fff;
      }

      .cls-6 {
        fill: url(#linear-gradient-2);
      }

      .cls-7 {
        fill: url(#linear-gradient);
      }

      .cls-3 {
        fill: #231f20;
      }

      .cls-8 {
        clip-path: url(#clippath-1);
      }

      .cls-9 {
        clip-path: url(#clippath-3);
      }

      .cls-10 {
        clip-path: url(#clippath-4);
      }

      .cls-11 {
        clip-path: url(#clippath-2);
      }

      .cls-12 {
        clip-path: url(#clippath-7);
      }

      .cls-13 {
        clip-path: url(#clippath-6);
      }

      .cls-14 {
        clip-path: url(#clippath-9);
      }

      .cls-15 {
        clip-path: url(#clippath-8);
      }

      .cls-16 {
        clip-path: url(#clippath-5);
      }

      .cls-17 {
        clip-path: url(#clippath);
      }

      .cls-4 {
        fill: #53ba65;
      }
    </style>
    <clipPath id="clippath">
      <path class="cls-1" d="M40.22,99.17v115.8l203.52-20.73c15.31-1.56,29.04-10.11,37.18-23.17l44.82-71.89H40.22Z"/>
    </clipPath>
    <linearGradient id="linear-gradient" x1="-112.35" y1="578.79" x2="-111.35" y2="578.79" gradientTransform="translate(34637.94 178446.4) scale(308.04 -308.04)" gradientUnits="userSpaceOnUse">
      <stop offset="0" stop-color="#3452a4"/>
      <stop offset=".25" stop-color="#3452a4"/>
      <stop offset=".75" stop-color="#3fba8d"/>
      <stop offset="1" stop-color="#51ba71"/>
      <stop offset="1" stop-color="#51ba71"/>
    </linearGradient>
    <clipPath id="clippath-1">
      <rect class="cls-1" x="40.22" y="99.17" width="285.52" height="115.8"/>
    </clipPath>
    <clipPath id="clippath-2">
      <rect class="cls-1" x="40.22" y="99.17" width="285.52" height="115.8"/>
    </clipPath>
    <clipPath id="clippath-3">
      <rect class="cls-1" x="40.22" y="99.17" width="285.52" height="115.8"/>
    </clipPath>
    <clipPath id="clippath-4">
      <rect class="cls-1" x="40.22" y="99.17" width="285.52" height="115.8"/>
    </clipPath>
    <clipPath id="clippath-5">
      <rect class="cls-1" x="40.22" y="99.17" width="285.52" height="115.8"/>
    </clipPath>
    <clipPath id="clippath-6">
      <rect class="cls-1" x="40.22" y="99.17" width="285.52" height="115.8"/>
    </clipPath>
    <clipPath id="clippath-7">
      <rect class="cls-1" x="40.22" y="99.17" width="285.52" height="115.8"/>
    </clipPath>
    <clipPath id="clippath-8">
      <rect class="cls-1" x="68.59" y="122.33" width="199.47" height="32.33"/>
    </clipPath>
    <clipPath id="clippath-9">
      <path class="cls-1" d="M75.59,130.71l1.44-.9,4.19-2.6c.19-.12.41-.08.58.05.13.11.21.27.21.45v8.34s-1.53-1.57-1.53-1.57c-.1-.1-.22-.17-.35-.19-.12,0-.23.03-.33.1l-5.49,3.41c-.19.11-.39.1-.56,0-.15-.08-.26-.25-.26-.46v-8.33s1.25,1.25,1.25,1.25l.4.4c.07.07.17.1.26.1.07,0,.14-.02.21-.06M80.33,122.35s-.03,0-.04,0c-.31.04-.59.08-.89.15-.63.16-1.22.41-1.78.74l-2.68,1.64-2.49,1.56-3.72-3.78c-.16.05-.11.11-.11.19l-.02,14.37s.01.01.02.04c.09.7.28,1.37.59,1.99.98,2.04,3,3.36,5.27,3.45h.42c1.06-.05,2.09-.33,3-.89l1.95-1.21,3.19-2,.28.27,3.46,3.46s.08-.01.11-.05v-14.03c0-.53-.11-1.05-.24-1.55-.29-1.12-.94-2.09-1.83-2.83-.47-.39-.98-.7-1.53-.96-.66-.31-1.34-.5-2.06-.57,0,0-.02,0-.03,0-.02,0-.04,0-.05-.02h-.76s-.05.02-.07.02"/>
    </clipPath>
    <linearGradient id="linear-gradient-2" x1="-104.87" y1="597.72" x2="-103.87" y2="597.72" gradientTransform="translate(1987.05 11067.4) scale(18.29 -18.29)" gradientUnits="userSpaceOnUse">
      <stop offset="0" stop-color="#53ba65"/>
      <stop offset="1" stop-color="#40ba8d"/>
    </linearGradient>
  </defs>
  <g id="Layer_1-2" data-name="Layer 1">
    <g>
      <g class="cls-17">
        <rect class="cls-7" x="28.93" y="49.91" width="308.11" height="214.32" transform="translate(-45.51 79.98) rotate(-22)"/>
      </g>
      <g class="cls-8">
        <path class="cls-5" d="M191.41,159.29h.16c.19,0,.34-.06.34-.2,0-.12-.1-.2-.32-.2-.09,0-.15,0-.19.02v.39ZM191.4,160.05h-.34v-1.35c.13-.03.32-.04.57-.04.28,0,.41.04.52.1.08.06.15.16.15.3,0,.15-.13.26-.31.31h0c.15.06.23.17.27.34.04.21.07.29.11.34h-.37s-.07-.17-.12-.33c-.03-.15-.12-.21-.31-.21h-.16v.54ZM190.49,159.34c0,.6.49,1.08,1.16,1.08s1.13-.47,1.13-1.07-.48-1.09-1.14-1.09-1.15.49-1.15,1.08M193.16,159.34c0,.77-.66,1.37-1.52,1.37s-1.53-.6-1.53-1.37.68-1.35,1.53-1.35,1.52.6,1.52,1.35"/>
      </g>
      <path class="cls-5" d="M167.57,163.85h-2.37l1.19-3.05,1.18,3.05ZM168.44,166.94h5.05l-3.21-8.27h-7.88l-3.2,8.27h5.02l.42-1.06h3.39l.4,1.06Z"/>
      <g class="cls-11">
        <path class="cls-5" d="M183.63,160.44c-.43,0-1.26,0-1.26.56,0,.57.71.57,1.28.58,1.58.07,2.44.04,3.36.49.81.41,1.4,1.12,1.42,2.01,0,.89-.5,1.67-1.35,2.24-.95.63-2.79.67-4.96.64-1.71-.03-3.03.03-4.74,0v-2.42c1.42,0,2.43,0,3.84,0,.76,0,1.76.07,1.74-.6-.02-.67-.63-.6-1.79-.64-1.78-.06-2.54-.19-3.18-.57-.62-.37-1.1-.99-1.1-1.87s.43-1.51,1.45-2c1.02-.49,2.59-.55,4.58-.54h4.66s0,2.09,0,2.09l-3.95.03Z"/>
        <path class="cls-5" d="M150.24,158.44c-4.53,0-6.83,1.47-6.83,4.38s1.91,4.12,6.39,4.12h5.98v-4.55h-4.03v2.31h-.8c-1.77,0-2.75-.64-2.75-1.81,0-1.31,1.16-1.95,3.54-1.95h4.03v-2.5h-5.54Z"/>
        <path class="cls-5" d="M84.52,158.54h-5.05v8.31h4.72v-4.15s3.7,4.15,3.7,4.15h4.38v-8.31h-4.72v2.1c0,.37,0,.84.01,1.39v.41s-3.05-3.9-3.05-3.9Z"/>
      </g>
      <rect class="cls-5" x="68.59" y="158.54" width="5.02" height="8.31"/>
      <polygon class="cls-5" points="112.84 166.84 123.08 166.84 123.08 165.09 117.73 165.09 117.73 163.83 123.08 163.83 123.08 162.11 117.73 162.11 117.73 160.72 123.08 160.72 123.08 158.54 112.84 158.54 112.84 166.84"/>
      <polygon class="cls-5" points="100.08 166.84 105.1 166.84 105.1 161.69 108.16 161.69 108.16 158.54 97.02 158.54 97.02 161.69 100.08 161.69 100.08 166.84"/>
      <g class="cls-9">
        <path class="cls-5" d="M133.68,162.04h-.98v-1.79h1.08c.92,0,1.68.06,1.68.82,0,.86-.85.97-1.77.97M140.65,166.84l-3.34-3.52.24-.02c1.38,0,2.58-.69,2.58-2.13s-1.29-2.64-3.35-2.64h-8.56v8.31h4.59l-.02-3.02,2.5,3.02h5.36Z"/>
      </g>
      <polygon class="cls-5" points="73.14 178.74 73.14 177.36 69.42 177.36 69.42 178.74 68.59 178.74 68.59 175.23 69.42 175.23 69.42 176.61 73.14 176.61 73.14 175.23 73.97 175.23 73.97 178.74 73.14 178.74"/>
      <polygon class="cls-5" points="75.34 178.74 75.34 175.23 80.4 175.23 80.4 175.98 76.17 175.98 76.17 176.64 79.89 176.64 79.89 177.33 76.17 177.33 76.17 177.99 80.4 177.99 80.4 178.74 75.34 178.74"/>
      <path class="cls-5" d="M84.22,175.93l-1.21,1.55h2.41l-1.21-1.55ZM86.4,178.74l-.45-.58h-3.47l-.45.58h-1.02l2.74-3.52h.91l2.75,3.52h-1Z"/>
      <polygon class="cls-5" points="86.98 175.98 86.98 175.23 92.68 175.23 92.68 175.98 90.25 175.98 90.25 178.74 89.41 178.74 89.41 175.98 86.98 175.98"/>
      <rect class="cls-5" x="93.59" y="175.23" width=".83" height="3.52"/>
      <polygon class="cls-5" points="100.41 178.74 96.62 176.2 96.62 178.74 95.8 178.74 95.8 175.23 96.59 175.23 100.37 177.77 100.37 175.23 101.19 175.23 101.19 178.74 100.41 178.74"/>
      <g class="cls-10">
        <path class="cls-5" d="M105.29,177.33v-.68h2.54v2.1h-3.28c-.75,0-1.31-.16-1.67-.49-.36-.33-.54-.75-.54-1.27s.18-.95.54-1.27.92-.49,1.67-.49h3v.75h-3c-.89,0-1.34.33-1.34,1.01s.44,1,1.34,1h2.47v-.66h-1.73Z"/>
        <path class="cls-5" d="M111.74,178.74v-.75h3.82c.2,0,.33-.03.4-.09.07-.06.1-.14.1-.24s-.03-.19-.1-.24c-.07-.06-.2-.09-.4-.09h-2.67c-.46,0-.8-.1-1.02-.29-.22-.19-.33-.45-.33-.76s.11-.57.33-.76c.22-.19.56-.29,1.02-.29h3.84v.75h-3.82c-.2,0-.33.03-.4.09-.07.06-.1.14-.1.24s.03.18.1.24c.07.06.2.09.4.09h2.67c.46,0,.8.1,1.02.29.22.19.33.45.33.76s-.11.57-.33.76c-.22.19-.56.29-1.02.29h-3.84Z"/>
        <path class="cls-5" d="M120.1,178.04h1.5c.93,0,1.4-.35,1.4-1.06s-.47-1.05-1.4-1.05h-1.49c-.94,0-1.41.35-1.41,1.05s.47,1.06,1.41,1.06M121.6,178.79h-1.51c-.4,0-.75-.05-1.04-.14-.3-.09-.54-.22-.71-.39-.18-.17-.31-.36-.39-.57-.09-.21-.13-.45-.13-.71s.04-.49.13-.71c.09-.21.22-.4.39-.57.18-.17.42-.3.71-.39.3-.09.65-.14,1.04-.14h1.51c.4,0,.75.05,1.04.14.3.09.54.22.71.39.18.17.31.36.39.57.08.21.13.45.13.71s-.04.49-.13.71c-.09.21-.22.4-.39.57-.18.17-.42.3-.71.39-.3.09-.65.14-1.04.14"/>
      </g>
      <polygon class="cls-5" points="125.85 175.23 125.85 177.99 129.98 177.99 129.98 178.74 125.02 178.74 125.02 175.23 125.85 175.23"/>
      <g class="cls-16">
        <path class="cls-5" d="M131.62,177.12c0,.29.09.52.28.68.19.16.53.24,1.01.24h1.19c.48,0,.82-.08,1.01-.24.19-.16.28-.39.28-.68v-1.89h.83v1.89c0,1.12-.71,1.67-2.11,1.67h-1.2c-1.41,0-2.12-.56-2.12-1.67v-1.89h.83v1.89Z"/>
      </g>
      <polygon class="cls-5" points="137.04 175.98 137.04 175.23 142.73 175.23 142.73 175.98 140.3 175.98 140.3 178.74 139.47 178.74 139.47 175.98 137.04 175.98"/>
      <rect class="cls-5" x="143.65" y="175.23" width=".83" height="3.52"/>
      <g class="cls-13">
        <path class="cls-5" d="M147.9,178.04h1.5c.93,0,1.4-.35,1.4-1.06s-.47-1.05-1.4-1.05h-1.49c-.94,0-1.41.35-1.41,1.05s.47,1.06,1.41,1.06M149.4,178.79h-1.51c-.4,0-.75-.05-1.04-.14-.3-.09-.54-.22-.71-.39-.18-.17-.31-.36-.39-.57-.09-.21-.13-.45-.13-.71s.04-.49.13-.71c.09-.21.22-.4.39-.57.18-.17.42-.3.71-.39.3-.09.65-.14,1.04-.14h1.51c.4,0,.75.05,1.04.14.3.09.54.22.71.39.18.17.31.36.39.57.08.21.13.45.13.71s-.04.49-.13.71c-.09.21-.22.4-.39.57-.18.17-.42.3-.71.39-.3.09-.65.14-1.04.14"/>
      </g>
      <polygon class="cls-5" points="157.43 178.74 153.65 176.2 153.65 178.74 152.82 178.74 152.82 175.23 153.61 175.23 157.39 177.77 157.39 175.23 158.22 175.23 158.22 178.74 157.43 178.74"/>
      <g class="cls-12">
        <path class="cls-5" d="M159.55,178.74v-.75h3.82c.2,0,.33-.03.4-.09.07-.06.1-.14.1-.24s-.03-.19-.1-.24c-.07-.06-.2-.09-.4-.09h-2.67c-.46,0-.8-.1-1.02-.29-.22-.19-.33-.45-.33-.76s.11-.57.33-.76c.22-.19.56-.29,1.02-.29h3.84v.75h-3.82c-.2,0-.33.03-.4.09-.07.06-.1.14-.1.24s.03.18.1.24c.07.06.2.09.4.09h2.67c.46,0,.8.1,1.02.29.22.19.33.45.33.76s-.11.57-.33.76c-.22.19-.56.29-1.02.29h-3.84Z"/>
      </g>
      <g class="cls-15">
        <text class="cls-4" transform="translate(86.5 141.22)"><tspan x="0" y="0">MarGav</tspan></text>
        <text class="cls-3" transform="translate(177.19 141.22)"><tspan x="0" y="0"> </tspan></text>
        <text class="cls-2" transform="translate(177.63 141.22)"><tspan x="0" y="0">Heating</tspan></text>
      </g>
      <g class="cls-14">
        <rect class="cls-6" x="68.57" y="122.33" width="18.32" height="20.38"/>
      </g>
    </g>
  </g>
</svg>